# xmcd
#
# Track frame offsets:
#	182
#	17280
#	40952
#	63842
#	81545
#	98492
#	123042
#	138550
#	159030
#	175955
#
# Disc length: 2549 seconds
#
# Revision: 1
# Processed by: cddbd v1.4b42PL1 Copyright (c) Steve Scherf et al.
# Submitted via: audiograbber 1.80
#
DISCID=6f09f30a
DTITLE=Billy Always - Let's get personal
DYEAR=1900
DGENRE=
TTITLE0=One of them thangs
TTITLE1=Ain't nothing
TTITLE2=I need you
TTITLE3=You are my life
TTITLE4=I don't understand it
TTITLE5=Help me get it off
TTITLE6=One bad turn
TTITLE7=Teaser
TTITLE8=Didn't we do
TTITLE9=No more rodeo
EXTD=
EXTT0=
EXTT1=
EXTT2=
EXTT3=
EXTT4=
EXTT5=
EXTT6=
EXTT7=
EXTT8=
EXTT9=
PLAYORDER=
